<svg width="24" height="153" viewBox="0 0 24 153" fill="none" xmlns="http://www.w3.org/2000/svg">
<path d="M13.0607 0.939335C12.4749 0.35355 11.5251 0.35355 10.9393 0.939335L1.3934 10.4853C0.807611 11.0711 0.807611 12.0208 1.3934 12.6066C1.97919 13.1924 2.92893 13.1924 3.51472 12.6066L12 4.12132L20.4853 12.6066C21.0711 13.1924 22.0208 13.1924 22.6066 12.6066C23.1924 12.0208 23.1924 11.0711 22.6066 10.4853L13.0607 0.939335ZM13.5 62L13.5 2H10.5L10.5 62H13.5Z" fill="#FCF4DA"/>
<path d="M10.9393 152.061C11.5251 152.646 12.4749 152.646 13.0607 152.061L22.6066 142.515C23.1924 141.929 23.1924 140.979 22.6066 140.393C22.0208 139.808 21.0711 139.808 20.4853 140.393L12 148.879L3.51472 140.393C2.92893 139.808 1.97919 139.808 1.3934 140.393C0.807612 140.979 0.807612 141.929 1.3934 142.515L10.9393 152.061ZM10.5 91L10.5 151L13.5 151L13.5 91L10.5 91Z" fill="#FCF4DA"/>
</svg>
