<svg width="24" height="32" viewBox="0 0 24 32" fill="none" xmlns="http://www.w3.org/2000/svg">
<path d="M6.04922 20.25C5.82378 20.25 5.60758 20.1604 5.44818 20.001C5.28877 19.8416 5.19922 19.6254 5.19922 19.4C5.19922 19.1746 5.28877 18.9584 5.44818 18.7989C5.60758 18.6395 5.82378 18.55 6.04922 18.55H17.9492C18.1747 18.55 18.3909 18.6395 18.5503 18.7989C18.7097 18.9584 18.7992 19.1746 18.7992 19.4C18.7992 19.6254 18.7097 19.8416 18.5503 20.001C18.3909 20.1604 18.1747 20.25 17.9492 20.25H6.04922ZM6.04922 24.5C5.82378 24.5 5.60758 24.4104 5.44818 24.251C5.28877 24.0916 5.19922 23.8754 5.19922 23.65C5.19922 23.4246 5.28877 23.2084 5.44818 23.0489C5.60758 22.8895 5.82378 22.8 6.04922 22.8H17.9492C18.1747 22.8 18.3909 22.8895 18.5503 23.0489C18.7097 23.2084 18.7992 23.4246 18.7992 23.65C18.7992 23.8754 18.7097 24.0916 18.5503 24.251C18.3909 24.4104 18.1747 24.5 17.9492 24.5H6.04922Z" fill="#FCF4DA"/>
<path fill-rule="evenodd" clip-rule="evenodd" d="M14.0141 0.700012H2.64961C1.97331 0.700012 1.3247 0.968672 0.846487 1.44689C0.368269 1.92511 0.0996094 2.57371 0.0996094 3.25001V28.75C0.0996094 29.4263 0.368269 30.0749 0.846487 30.5531C1.3247 31.0314 1.97331 31.3 2.64961 31.3H21.3496C22.0259 31.3 22.6745 31.0314 23.1527 30.5531C23.6309 30.0749 23.8996 29.4263 23.8996 28.75V11.2434C23.8994 10.605 23.6598 9.9899 23.2281 9.51961L15.8943 1.52621C15.6553 1.26568 15.3647 1.05769 15.0411 0.915461C14.7174 0.773229 14.3677 0.69986 14.0141 0.700012ZM1.79961 3.25001C1.79961 3.02458 1.88916 2.80838 2.04857 2.64897C2.20797 2.48957 2.42418 2.40001 2.64961 2.40001H14.0141C14.1321 2.39988 14.2487 2.4243 14.3567 2.47171C14.4647 2.51913 14.5617 2.5885 14.6414 2.67541L21.9752 10.6688C22.1193 10.8255 22.1994 11.0305 22.1996 11.2434V28.75C22.1996 28.9754 22.1101 29.1916 21.9506 29.3511C21.7912 29.5105 21.575 29.6 21.3496 29.6H2.64961C2.42418 29.6 2.20797 29.5105 2.04857 29.3511C1.88916 29.1916 1.79961 28.9754 1.79961 28.75V3.25001Z" fill="#FCF4DA"/>
<path d="M14.5498 2.57001V10.56H22.5398" stroke="#FCF4DA" stroke-linecap="round" stroke-linejoin="round"/>
<path d="M8.82771 9.42608C9.07048 9.43352 9.31226 9.39212 9.53873 9.30435C9.76519 9.21658 9.97172 9.08423 10.1461 8.91514C10.3204 8.74605 10.459 8.54366 10.5537 8.31999C10.6484 8.09632 10.6971 7.85591 10.6971 7.61303C10.6971 7.37016 10.6484 7.12975 10.5537 6.90608C10.459 6.68241 10.3204 6.48002 10.1461 6.31093C9.97172 6.14184 9.76519 6.00948 9.53873 5.92171C9.31226 5.83394 9.07048 5.79255 8.82771 5.79998C8.35647 5.81441 7.90936 6.01176 7.58113 6.3502C7.2529 6.68863 7.06934 7.14157 7.06934 7.61303C7.06934 8.0845 7.2529 8.53743 7.58113 8.87587C7.90936 9.21431 8.35647 9.41165 8.82771 9.42608Z" fill="#FCF4DA"/>
<path fill-rule="evenodd" clip-rule="evenodd" d="M12.4514 13.3548C12.4514 11.427 10.8279 10.0313 8.82532 10.0313C6.82272 10.0313 5.19922 11.4253 5.19922 13.3548V14.2626C5.19967 14.4228 5.26363 14.5763 5.37708 14.6895C5.49053 14.8026 5.6442 14.8661 5.80442 14.8661H11.8479C12.0078 14.8657 12.1611 14.8019 12.2742 14.6889C12.3872 14.5758 12.451 14.4225 12.4514 14.2626V13.3548Z" fill="#FCF4DA"/>
</svg>
