<svg width="34" height="34" viewBox="0 0 34 34" fill="none" xmlns="http://www.w3.org/2000/svg">
<path d="M12.7502 26.9167C5.66683 29.0417 5.66683 23.375 2.8335 22.6667M22.6668 31.1667V25.6842C22.72 25.0087 22.6287 24.3296 22.3991 23.6921C22.1695 23.0545 21.8068 22.4732 21.3352 21.9867C25.7835 21.4908 30.4585 19.805 30.4585 12.07C30.4581 10.0921 29.6973 8.19004 28.3335 6.75751C28.9793 5.02706 28.9336 3.11434 28.206 1.41668C28.206 1.41668 26.5343 0.920847 22.6668 3.51335C19.4198 2.63334 15.9971 2.63334 12.7502 3.51335C8.88266 0.920847 7.211 1.41668 7.211 1.41668C6.48336 3.11434 6.4377 5.02706 7.0835 6.75751C5.70951 8.20067 4.9479 10.1199 4.9585 12.1125C4.9585 19.7908 9.6335 21.4767 14.0818 22.0292C13.6157 22.5108 13.2563 23.0852 13.0268 23.7149C12.7974 24.3446 12.7031 25.0156 12.7502 25.6842V31.1667" stroke="#FCF4DA" stroke-width="2" stroke-linecap="round" stroke-linejoin="round"/>
</svg>
