<svg width="34" height="33" viewBox="0 0 34 33" fill="none" xmlns="http://www.w3.org/2000/svg">
<path d="M24.0835 2.75H9.91683C6.00481 2.75 2.8335 5.82804 2.8335 9.625V23.375C2.8335 27.172 6.00481 30.25 9.91683 30.25H24.0835C27.9955 30.25 31.1668 27.172 31.1668 23.375V9.625C31.1668 5.82804 27.9955 2.75 24.0835 2.75Z" stroke="#FCF4DA" stroke-width="2" stroke-linecap="round" stroke-linejoin="round"/>
<path d="M22.6666 15.6337C22.8414 16.7781 22.64 17.9468 22.0911 18.9736C21.5421 20.0005 20.6735 20.8332 19.6089 21.3533C18.5442 21.8734 17.3377 22.0544 16.1609 21.8706C14.9842 21.6869 13.8971 21.1476 13.0543 20.3296C12.2115 19.5116 11.6559 18.4564 11.4665 17.3143C11.2771 16.1721 11.4637 15.0011 11.9995 13.9678C12.5354 12.9344 13.3933 12.0914 14.4513 11.5586C15.5093 11.0258 16.7134 10.8303 17.8924 11C19.0951 11.1731 20.2084 11.717 21.0681 12.5514C21.9278 13.3858 22.4882 14.4665 22.6666 15.6337Z" stroke="#FCF4DA" stroke-width="2" stroke-linecap="round" stroke-linejoin="round"/>
<path d="M24.7915 8.9375H24.8053" stroke="#FCF4DA" stroke-width="2" stroke-linecap="round" stroke-linejoin="round"/>
</svg>
