<svg width="34" height="34" viewBox="0 0 34 34" fill="none" xmlns="http://www.w3.org/2000/svg">
<path d="M22.6665 11.3333C24.9208 11.3333 27.0829 12.2288 28.6769 13.8229C30.271 15.417 31.1665 17.579 31.1665 19.8333V29.75H25.4998V19.8333C25.4998 19.0819 25.2013 18.3612 24.67 17.8298C24.1386 17.2985 23.418 17 22.6665 17C21.9151 17 21.1944 17.2985 20.663 17.8298C20.1317 18.3612 19.8332 19.0819 19.8332 19.8333V29.75H14.1665V19.8333C14.1665 17.579 15.062 15.417 16.6561 13.8229C18.2502 12.2288 20.4122 11.3333 22.6665 11.3333V11.3333Z" stroke="#FCF4DA" stroke-width="2" stroke-linecap="round" stroke-linejoin="round"/>
<path d="M8.50016 12.75H2.8335V29.75H8.50016V12.75Z" stroke="#FCF4DA" stroke-width="2" stroke-linecap="round" stroke-linejoin="round"/>
<path d="M5.66683 8.49998C7.23164 8.49998 8.50016 7.23145 8.50016 5.66665C8.50016 4.10184 7.23164 2.83331 5.66683 2.83331C4.10202 2.83331 2.8335 4.10184 2.8335 5.66665C2.8335 7.23145 4.10202 8.49998 5.66683 8.49998Z" stroke="#FCF4DA" stroke-width="2" stroke-linecap="round" stroke-linejoin="round"/>
</svg>
