<svg width="36" height="37" viewBox="0 0 36 37" fill="none" xmlns="http://www.w3.org/2000/svg">
<path d="M34.9989 26.5061V31.6346C35.0009 32.1107 34.9034 32.582 34.7126 33.0182C34.5219 33.4544 34.2421 33.846 33.8913 34.1679C33.5405 34.4897 33.1263 34.7348 32.6753 34.8873C32.2243 35.0398 31.7464 35.0965 31.2722 35.0536C26.0118 34.482 20.9587 32.6845 16.5191 29.8054C12.3887 27.1807 8.88675 23.6788 6.26207 19.5484C3.37296 15.0886 1.57501 10.011 1.01388 4.7269C0.971156 4.25416 1.02734 3.77771 1.17884 3.32788C1.33035 2.87804 1.57386 2.46468 1.89387 2.11412C2.21389 1.76355 2.60339 1.48346 3.03758 1.29167C3.47177 1.09989 3.94114 1.00061 4.4158 1.00017H9.54433C10.374 0.992 11.1783 1.28579 11.8073 1.82677C12.4364 2.36775 12.8472 3.11901 12.9634 3.94052C13.1798 5.58177 13.5813 7.19326 14.16 8.74425C14.39 9.35612 14.4398 10.0211 14.3035 10.6604C14.1671 11.2997 13.8504 11.8865 13.3907 12.3513L11.2197 14.5224C13.6532 18.8022 17.1969 22.3459 21.4767 24.7795L23.6478 22.6084C24.1126 22.1488 24.6994 21.832 25.3387 21.6957C25.978 21.5593 26.643 21.6091 27.2549 21.8391C28.8059 22.4179 30.4173 22.8193 32.0586 23.0358C32.889 23.1529 33.6474 23.5712 34.1895 24.211C34.7317 24.8509 35.0197 25.6677 34.9989 26.5061Z" stroke="black" stroke-width="2" stroke-linecap="round" stroke-linejoin="round"/>
</svg>
